<svg viewBox="0 0 1236 49" fill="none" xmlns="http://www.w3.org/2000/svg">
<path d="M10 20.5127L21.4015 19.8632C28.7833 19.4427 35 25.3154 35 32.7092V32.7092C35 39.8153 40.7607 45.5759 47.8668 45.5759H355.212C367.245 45.5759 377 35.8211 377 23.788V23.788C377 11.7548 386.755 2 398.788 2H836.5C848.926 2 859 12.0736 859 24.5V24.5C859 36.9264 869.074 47 881.5 47H1183.76C1191.07 47 1197 41.0706 1197 33.7563V33.7563C1197 26.4421 1202.93 20.5127 1210.24 20.5127H1226" stroke="url(#paint0_linear_1_157)" stroke-width="3"/>
<ellipse cx="10" cy="20.5127" rx="10" ry="2.8481" fill="url(#paint1_linear_1_157)"/>
<ellipse cx="1226" cy="20.5127" rx="10" ry="2.8481" fill="url(#paint2_linear_1_157)"/>
<defs>
<linearGradient id="paint0_linear_1_157" x1="694.353" y1="47" x2="694.335" y2="2.00001" gradientUnits="userSpaceOnUse">
<stop stop-color="#8962F3"/>
<stop offset="0.0001" stop-color="#8161FF"/>
<stop offset="1" stop-color="#E07BF7"/>
</linearGradient>
<linearGradient id="paint1_linear_1_157" x1="11.2558" y1="23.3608" x2="11.2376" y2="17.6646" gradientUnits="userSpaceOnUse">
<stop stop-color="#8962F3"/>
<stop offset="0.0001" stop-color="#8161FF"/>
<stop offset="1" stop-color="#E07BF7"/>
</linearGradient>
<linearGradient id="paint2_linear_1_157" x1="1227.26" y1="23.3608" x2="1227.24" y2="17.6646" gradientUnits="userSpaceOnUse">
<stop stop-color="#8962F3"/>
<stop offset="0.0001" stop-color="#8161FF"/>
<stop offset="1" stop-color="#E07BF7"/>
</linearGradient>
</defs>
</svg>
