<svg viewBox="0 0 204 350" fill="none" xmlns="http://www.w3.org/2000/svg">
<path d="M104.304 242.283C93.2217 242.391 82.2494 240.172 72.1719 235.784C62.0944 231.396 53.1631 224.947 46.0157 216.901C38.8684 208.855 33.6827 199.411 30.8262 189.246C27.9698 179.082 27.5128 168.447 29.485 158.101C31.4573 147.755 35.8104 137.951 42.2335 129.39C48.6568 120.828 56.9932 113.717 66.6493 108.567C76.3056 103.418 87.0438 100.356 98.0972 99.6042C109.151 98.8526 120.245 100.43 130.586 104.224" stroke="#8962F3" stroke-width="2.37471" stroke-linecap="round" stroke-dasharray="23.75 23.75"/>
<path d="M102.344 234.923C92.463 235.094 82.6975 233.159 73.7457 229.256C64.7939 225.354 56.8778 219.581 50.5631 212.351C44.2484 205.121 39.6914 196.612 37.2165 187.434C34.7416 178.256 34.4098 168.635 36.2436 159.258C38.0775 149.881 42.0319 140.979 47.8244 133.188C53.6169 125.396 61.1052 118.907 69.7548 114.184C78.4046 109.462 88.0024 106.622 97.8629 105.87C107.723 105.118 117.602 106.472 126.793 109.835" stroke="#8962F3" stroke-width="2.37471" stroke-linecap="round" stroke-dasharray="12.67 12.67"/>
<path d="M101.934 227.805C93.1505 227.955 84.4698 226.233 76.5128 222.763C68.5557 219.293 61.5198 214.16 55.9074 207.732C50.2952 201.304 46.2455 193.74 44.0467 185.581C41.848 177.423 41.5542 168.871 43.1852 160.536C44.8163 152.201 48.3321 144.289 53.4816 137.364C58.631 130.439 65.2876 124.672 72.9765 120.474C80.6656 116.277 89.1974 113.753 97.9627 113.085C106.728 112.417 115.51 113.621 123.68 116.612" stroke="#8962F3" stroke-width="2.37471" stroke-linecap="round" stroke-dasharray="7.92 7.92"/>
<path d="M101.925 221.172C94.1548 221.306 86.4754 219.784 79.4358 216.715C72.3963 213.646 66.1715 209.106 61.2061 203.42C56.2408 197.734 52.6578 191.043 50.7122 183.827C48.7665 176.61 48.5061 169.045 49.9483 161.673C51.3905 154.3 54.4999 147.301 59.0545 141.176C63.6091 135.05 69.4969 129.948 76.2983 126.235C83.0996 122.522 90.6468 120.289 98.4007 119.698C106.155 119.107 113.923 120.172 121.151 122.818" stroke="#8962F3" stroke-width="2.37471" stroke-linecap="round" stroke-dasharray="5.54 5.54"/>
<path d="M140.198 108.515C154.038 115.866 165.076 127.18 171.741 140.837C178.406 154.493 180.358 169.792 177.328 184.552C174.298 199.312 166.439 212.786 154.87 223.054C143.3 233.322 128.606 239.862 112.879 241.733" stroke="#E17BF8" stroke-width="2.37471" stroke-linecap="round" stroke-dasharray="23.75 23.75"/>
<path d="M136.759 114.377C149.298 121.04 159.298 131.292 165.335 143.666C171.373 156.039 173.14 169.899 170.394 183.271C167.648 196.641 160.529 208.848 150.048 218.15C139.566 227.452 126.254 233.378 112.005 235.074" stroke="#E17BF8" stroke-width="2.37471" stroke-linecap="round" stroke-dasharray="12.67 12.67"/>
<path d="M132.98 120.796C144.096 126.703 152.96 135.791 158.312 146.759C163.663 157.727 165.229 170.012 162.796 181.862C160.362 193.712 154.052 204.531 144.763 212.775C135.473 221.019 123.674 226.272 111.043 227.776" stroke="#E17BF8" stroke-width="2.37471" stroke-linecap="round" stroke-dasharray="7.92 7.92"/>
<path d="M129.384 126.903C139.146 132.09 146.93 140.071 151.629 149.702C156.328 159.332 157.702 170.118 155.566 180.522C153.429 190.926 147.89 200.423 139.734 207.661C131.578 214.9 121.218 219.512 110.127 220.832" stroke="#E17BF8" stroke-width="2.37471" stroke-linecap="round" stroke-dasharray="5.54 5.54"/>
<path d="M61.3387 110.769L2 1" stroke="#8962F3" stroke-width="2.37471"/>
<path d="M184.668 273L149.883 229.438" stroke="#E17BF8" stroke-width="2.37471"/>
<path d="M146.293 111.244L180.652 71.4672" stroke="#E17BF8" stroke-width="3"/>
<path d="M72.0105 239L43 349" stroke="#8962F3" stroke-width="3"/>
</svg>
