<svg viewBox="0 0 572 567" fill="none" xmlns="http://www.w3.org/2000/svg">
<path d="M288.488 497.384C256.753 497.707 225.337 491.073 196.485 477.954C167.634 464.835 142.06 445.556 121.592 421.496C101.123 397.435 86.2655 369.187 78.0796 338.77C69.8936 308.354 68.5817 276.52 74.2369 245.543C79.8921 214.566 92.375 185.211 110.793 159.576C129.212 133.94 153.111 112.656 180.785 97.2459C208.458 81.8355 239.222 72.6789 270.877 70.4312C302.533 68.1834 334.299 72.9 363.905 84.2441" stroke="#8962F3" stroke-width="3" stroke-linecap="round" stroke-dasharray="30 30"/>
<path d="M282.939 475.564C254.61 476.074 226.615 470.282 200.955 458.602C175.294 446.921 152.6 429.641 134.495 407.995C116.389 386.349 103.319 360.87 96.2197 333.379C89.1202 305.888 88.167 277.063 93.4297 248.965C98.6924 220.867 110.041 194.191 126.664 170.844C143.287 147.497 164.773 128.056 189.586 113.909C214.399 99.7632 241.925 91.2612 270.198 89.0093C298.47 86.7573 326.791 90.8107 353.137 100.879" stroke="#8962F3" stroke-width="3" stroke-linecap="round" stroke-dasharray="16 16"/>
<path d="M281.772 454.459C256.559 454.908 231.644 449.749 208.808 439.35C185.972 428.95 165.777 413.568 149.666 394.3C133.555 375.032 121.925 352.354 115.61 327.885C109.294 303.416 108.449 277.761 113.136 252.753C117.823 227.746 127.926 204.004 142.723 183.225C157.52 162.447 176.646 145.145 198.731 132.557C220.816 119.968 245.315 112.403 270.478 110.4C295.641 108.398 320.846 112.007 344.294 120.969" stroke="#8962F3" stroke-width="3" stroke-linecap="round" stroke-dasharray="10 10"/>
<path d="M281.744 434.795C259.408 435.196 237.336 430.628 217.105 421.418C196.874 412.208 178.982 398.583 164.708 381.516C150.434 364.448 140.13 344.359 134.533 322.683C128.936 301.006 128.185 278.278 132.336 256.123C136.487 233.968 145.436 212.934 158.544 194.526C171.652 176.117 188.595 160.789 208.16 149.636C227.724 138.483 249.428 131.78 271.719 130.006C294.01 128.231 316.339 131.428 337.111 139.367" stroke="#8962F3" stroke-width="3" stroke-linecap="round" stroke-dasharray="7 7"/>
<path d="M391.424 97.0697C431.047 119.047 462.66 152.875 481.756 193.728C500.851 234.58 506.453 280.37 497.763 324.565C489.074 368.761 466.537 409.105 433.368 439.843C400.198 470.581 358.089 490.144 313.046 495.739" stroke="#E17BF8" stroke-width="3" stroke-linecap="round" stroke-dasharray="30 30"/>
<path d="M381.662 114.449C417.591 134.385 446.256 165.066 463.568 202.115C480.881 239.164 485.958 280.688 478.076 320.766C470.194 360.844 449.756 397.429 419.677 425.304C389.597 453.179 351.412 470.921 310.565 475.997" stroke="#E17BF8" stroke-width="3" stroke-linecap="round" stroke-dasharray="16 16"/>
<path d="M370.934 133.482C402.822 151.175 428.262 178.405 443.627 211.286C458.993 244.168 463.498 281.021 456.503 316.59C449.508 352.159 431.369 384.629 404.673 409.368C377.978 434.108 344.087 449.854 307.836 454.359" stroke="#E17BF8" stroke-width="3" stroke-linecap="round" stroke-dasharray="10 10"/>
<path d="M360.725 151.588C388.768 167.148 411.141 191.095 424.654 220.012C438.166 248.928 442.129 281.338 435.977 312.618C429.825 343.898 413.874 372.452 390.397 394.208C366.921 415.964 337.117 429.812 305.236 433.774" stroke="#E17BF8" stroke-width="3" stroke-linecap="round" stroke-dasharray="7 7"/>
</svg>
